<svg width="49" height="48" viewBox="0 0 49 48" fill="none" xmlns="http://www.w3.org/2000/svg">
<path d="M6.5 24H8.5M40.5 24C41.0304 24 41.5391 23.7893 41.9142 23.4142C42.2893 23.0391 42.5 22.5304 42.5 22V14C42.5 12 41.3 8 36.5 8C31.7 8 30.5 12 30.5 14M40.5 24V28C40.5 30.276 39.334 34.496 35.01 35.682M40.5 24H8.5M8.5 24V28C8.5 30.276 9.666 34.496 13.99 35.682M12.5 40L13.99 35.682M13.99 35.682C14.73 35.886 15.564 36 16.5 36H32.5C33.3472 36.0074 34.1914 35.9004 35.01 35.682M36.5 40L35.01 35.682M30.5 14H26.5M30.5 14H34.5" stroke="#08AEE7" stroke-width="2" stroke-linecap="round" stroke-linejoin="round"/>
</svg>
