<svg width="49" height="48" viewBox="0 0 49 48" fill="none" xmlns="http://www.w3.org/2000/svg">
<path d="M4.5 32V38M24.5 26V14C24.5 12.9391 24.9214 11.9217 25.6716 11.1716C26.4217 10.4214 27.4391 10 28.5 10H36.5C37.5609 10 38.5783 10.4214 39.3284 11.1716C40.0786 11.9217 40.5 12.9391 40.5 14V18M24.5 26V14C24.5 12.9391 24.0786 11.9217 23.3284 11.1716C22.5783 10.4214 21.5609 10 20.5 10H12.5C11.4391 10 10.4217 10.4214 9.67157 11.1716C8.92143 11.9217 8.5 12.9391 8.5 14V18" stroke="#08AEE7" stroke-width="1.5" stroke-linecap="round" stroke-linejoin="round"/>
<path d="M44.5 32V38M40.5 18C39.4391 18 38.4217 18.4214 37.6716 19.1716C36.9214 19.9217 36.5 20.9391 36.5 22V26H12.5V22C12.5 20.9391 12.0786 19.9217 11.3284 19.1716C10.5783 18.4214 9.56087 18 8.5 18C7.43913 18 6.42172 18.4214 5.67157 19.1716C4.92143 19.9217 4.5 20.9391 4.5 22V34H44.5V22C44.5 20.9391 44.0786 19.9217 43.3284 19.1716C42.5783 18.4214 41.5609 18 40.5 18Z" stroke="#08AEE7" stroke-width="1.5" stroke-linecap="round" stroke-linejoin="round"/>
</svg>
