<svg width="32" height="32" viewBox="0 0 32 32" fill="none" xmlns="http://www.w3.org/2000/svg">
<path fill-rule="evenodd" clip-rule="evenodd" d="M21.7667 19.8653L28.94 27.0387C29.1921 27.291 29.3337 27.6331 29.3336 27.9898C29.3335 28.3465 29.1916 28.6885 28.9393 28.9407C28.687 29.1928 28.3449 29.3344 27.9882 29.3343C27.6315 29.3341 27.2895 29.1923 27.0373 28.94L19.864 21.7667C17.7196 23.4276 15.023 24.2092 12.3228 23.9525C9.62263 23.6958 7.12164 22.42 5.32864 20.3848C3.53564 18.3496 2.58532 15.7078 2.671 12.9967C2.75668 10.2857 3.87193 7.70915 5.78987 5.79121C7.70781 3.87327 10.2844 2.75802 12.9954 2.67234C15.7064 2.58665 18.3483 3.53698 20.3835 5.32998C22.4187 7.12298 23.6944 9.62397 23.9511 12.3242C24.2078 15.0244 23.4262 17.7209 21.7653 19.8653H21.7667ZM13.3333 21.3333C15.4551 21.3333 17.4899 20.4905 18.9902 18.9902C20.4905 17.4899 21.3333 15.4551 21.3333 13.3333C21.3333 11.2116 20.4905 9.17677 18.9902 7.67648C17.4899 6.17619 15.4551 5.33333 13.3333 5.33333C11.2116 5.33333 9.17677 6.17619 7.67648 7.67648C6.17619 9.17677 5.33333 11.2116 5.33333 13.3333C5.33333 15.4551 6.17619 17.4899 7.67648 18.9902C9.17677 20.4905 11.2116 21.3333 13.3333 21.3333Z" fill="#DC2A2A"/>
</svg>
