<svg width="49" height="48" viewBox="0 0 49 48" fill="none" xmlns="http://www.w3.org/2000/svg">
<path d="M14 8H35C36.4006 7.99993 37.7484 8.53418 38.7686 9.49379C39.7888 10.4534 40.4044 11.766 40.49 13.164L40.5 13.5V20.208C41.5902 20.5175 42.5582 21.1559 43.272 22.0361C43.9858 22.9163 44.4104 23.9954 44.488 25.126L44.5 25.5V40.5C44.4999 40.88 44.3555 41.2459 44.0961 41.5236C43.8366 41.8013 43.4814 41.9701 43.1022 41.9961C42.7231 42.022 42.3482 41.903 42.0534 41.6631C41.7586 41.4233 41.5658 41.0805 41.514 40.704L41.5 40.5V36H7.5V40.5C7.49998 40.8625 7.36871 41.2127 7.13047 41.4859C6.89222 41.759 6.56311 41.9367 6.204 41.986L6 42C5.63752 42 5.28732 41.8687 5.01414 41.6305C4.74096 41.3922 4.5633 41.0631 4.514 40.704L4.5 40.5V25.5C4.5 22.982 6.192 20.86 8.5 20.206V13.5C8.49993 12.0994 9.03418 10.7516 9.99379 9.73141C10.9534 8.71122 12.266 8.09556 13.664 8.01L14 8ZM39 23H10C9.38108 22.9997 8.78406 23.229 8.32447 23.6435C7.86487 24.0581 7.57538 24.6283 7.512 25.244L7.5 25.5V33H41.5V25.5C41.4998 24.8814 41.2703 24.2849 40.8558 23.8257C40.4413 23.3666 39.8713 23.0773 39.256 23.014L39 23ZM35 11H14C13.3811 10.9997 12.7841 11.229 12.3245 11.6435C11.8649 12.0581 11.5754 12.6283 11.512 13.244L11.5 13.5V20H14.5C14.5 19.4696 14.7107 18.9609 15.0858 18.5858C15.4609 18.2107 15.9696 18 16.5 18H20.5C20.9899 18.0001 21.4627 18.1799 21.8287 18.5054C22.1948 18.8309 22.4287 19.2795 22.486 19.766L22.5 20H26.5C26.5 19.4696 26.7107 18.9609 27.0858 18.5858C27.4609 18.2107 27.9696 18 28.5 18H32.5C32.9899 18.0001 33.4627 18.1799 33.8287 18.5054C34.1948 18.8309 34.4287 19.2795 34.486 19.766L34.5 20H37.5V13.5C37.5003 12.8811 37.271 12.2841 36.8565 11.8245C36.4419 11.3649 35.8717 11.0754 35.256 11.012L35 11Z" fill="#08AEE7"/>
</svg>
