<svg width="24" height="24" viewBox="0 0 24 24" fill="none" xmlns="http://www.w3.org/2000/svg">
<path fill-rule="evenodd" clip-rule="evenodd" d="M7.10486 7.11885C7.26552 6.95816 7.48341 6.86789 7.71059 6.86789C7.93778 6.86789 8.15566 6.95816 8.31633 7.11885L11.9945 10.7986L15.6726 7.11885C15.7516 7.03699 15.8462 6.97169 15.9507 6.92677C16.0552 6.88184 16.1676 6.8582 16.2814 6.85721C16.3952 6.85622 16.508 6.87791 16.6133 6.92101C16.7186 6.9641 16.8142 7.02775 16.8947 7.10823C16.9751 7.18871 17.0387 7.28441 17.0818 7.38975C17.1249 7.49509 17.1466 7.60796 17.1456 7.72177C17.1446 7.83558 17.121 7.94805 17.0761 8.05263C17.0312 8.1572 16.9659 8.25178 16.8841 8.33085L13.2059 12.0106L16.8841 15.6903C17.0401 15.8519 17.1265 16.0685 17.1245 16.2932C17.1226 16.5179 17.0325 16.7329 16.8736 16.8918C16.7148 17.0508 16.4999 17.1409 16.2752 17.1429C16.0506 17.1448 15.8342 17.0584 15.6726 16.9023L11.9945 13.2226L8.31633 16.9023C8.15474 17.0584 7.93832 17.1448 7.71368 17.1429C7.48903 17.1409 7.27414 17.0508 7.11529 16.8918C6.95644 16.7329 6.86633 16.5179 6.86438 16.2932C6.86243 16.0685 6.94879 15.8519 7.10486 15.6903L10.783 12.0106L7.10486 8.33085C6.94424 8.17012 6.854 7.95214 6.854 7.72485C6.854 7.49757 6.94424 7.27959 7.10486 7.11885Z" fill="white"/>
</svg>
